<?xml version="1.0" encoding="utf-8"?>
<!-- Generator: Adobe Illustrator 25.2.1, SVG Export Plug-In . SVG Version: 6.00 Build 0)  -->
<svg version="1.1" id="Filled_Outline" xmlns="http://www.w3.org/2000/svg" xmlns:xlink="http://www.w3.org/1999/xlink" x="0px"
	 y="0px" viewBox="0 0 32 32" enable-background="new 0 0 32 32" xml:space="preserve">
<title>Weather Free_Filled Outline</title>
<desc>Weather icon for website, application, printing, document, poster design, etc.</desc>
<metadata><?xpacket begin="﻿" id="W5M0MpCehiHzreSzNTczkc9d"?>
<x:xmpmeta xmlns:x="adobe:ns:meta/" x:xmptk="Adobe XMP Core 6.0-c006 79.164648, 2021/01/12-15:52:29        ">
   <rdf:RDF xmlns:rdf="http://www.w3.org/1999/02/22-rdf-syntax-ns#">
      <rdf:Description rdf:about=""
            xmlns:dc="http://purl.org/dc/elements/1.1/"
            xmlns:xmp="http://ns.adobe.com/xap/1.0/"
            xmlns:xmpMM="http://ns.adobe.com/xap/1.0/mm/"
            xmlns:stEvt="http://ns.adobe.com/xap/1.0/sType/ResourceEvent#">
         <dc:description>
            <rdf:Alt>
               <rdf:li xml:lang="x-default">Weather icon for website, application, printing, document, poster design, etc.</rdf:li>
            </rdf:Alt>
         </dc:description>
         <dc:subject>
            <rdf:Bag>
               <rdf:li>rain</rdf:li>
               <rdf:li>weather</rdf:li>
               <rdf:li>cloud</rdf:li>
               <rdf:li>thunder</rdf:li>
            </rdf:Bag>
         </dc:subject>
         <dc:title>
            <rdf:Alt>
               <rdf:li xml:lang="x-default">Weather Free_Filled Outline</rdf:li>
            </rdf:Alt>
         </dc:title>
         <xmp:MetadataDate>2021-04-21T12:21:20+07:00</xmp:MetadataDate>
         <xmpMM:InstanceID>xmp.iid:6297de11-19a1-0943-b256-ada117de9cd0</xmpMM:InstanceID>
         <xmpMM:DocumentID>xmp.did:1af05a89-842e-6648-b8f8-f36b84e81bfe</xmpMM:DocumentID>
         <xmpMM:OriginalDocumentID>xmp.did:1af05a89-842e-6648-b8f8-f36b84e81bfe</xmpMM:OriginalDocumentID>
         <xmpMM:History>
            <rdf:Seq>
               <rdf:li>
                  <rdf:Description>
                     <stEvt:action>saved</stEvt:action>
                     <stEvt:instanceID>xmp.iid:1af05a89-842e-6648-b8f8-f36b84e81bfe</stEvt:instanceID>
                     <stEvt:when>2021-04-21T12:20:48+07:00</stEvt:when>
                     <stEvt:softwareAgent>Adobe Bridge 2021 (Windows)</stEvt:softwareAgent>
                     <stEvt:changed>/metadata</stEvt:changed>
                  </rdf:Description>
               </rdf:li>
               <rdf:li>
                  <rdf:Description>
                     <stEvt:action>saved</stEvt:action>
                     <stEvt:instanceID>xmp.iid:6297de11-19a1-0943-b256-ada117de9cd0</stEvt:instanceID>
                     <stEvt:when>2021-04-21T12:21:20+07:00</stEvt:when>
                     <stEvt:softwareAgent>Adobe Bridge 2021 (Windows)</stEvt:softwareAgent>
                     <stEvt:changed>/metadata</stEvt:changed>
                  </rdf:Description>
               </rdf:li>
            </rdf:Seq>
         </xmpMM:History>
      </rdf:Description>
   </rdf:RDF>
</x:xmpmeta>
                                                                                                    
                                                                                                    
                                                                                                    
                                                                                                    
                                                                                                    
                                                                                                    
                                                                                                    
                                                                                                    
                                                                                                    
                                                                                                    
                                                                                                    
                 
<?xpacket end="w"?></metadata>
<g>
	<g>
		<path fill="#7CA7C6" d="M6,19c-2.76,0-5-2.24-5-5s2.24-5,5-5c0-4.42,3.58-8,8-8c3.75,0,6.89,2.57,7.76,6.05
			C24.71,7.42,27,9.95,27,13c0,3.31-2.69,6-6,6H6z"/>
		<path fill="#7CA7C6" d="M15,21c-2.21,0-4-1.79-4-4s1.79-4,4-4c0-3.31,2.69-6,6-6c2.63,0,4.87,1.7,5.67,4.05
			C29.11,11.37,31,13.47,31,16c0,2.76-2.24,5-5,5H15z"/>
		<polygon fill="#FFF3AE" points="26,17 19,17 18,24 20,24 19,31 26,21 24,21 		"/>
	</g>
	<g>
		
			<rect x="0.5" y="29.134" transform="matrix(0.4999 -0.8661 0.8661 0.4999 -25.3479 16.3684)" fill="#1A1A1A" width="2" height="2"/>
		
			<rect x="2.5" y="25.67" transform="matrix(0.4999 -0.8661 0.8661 0.4999 -21.3478 16.3684)" fill="#1A1A1A" width="2" height="2"/>
		
			<rect x="4.5" y="22.206" transform="matrix(0.4999 -0.8661 0.8661 0.4999 -17.3477 16.3683)" fill="#1A1A1A" width="2" height="2"/>
		
			<rect x="5.5" y="29.134" transform="matrix(0.4999 -0.8661 0.8661 0.4999 -22.8475 20.6988)" fill="#1A1A1A" width="2" height="2"/>
		
			<rect x="7.5" y="25.67" transform="matrix(0.4999 -0.8661 0.8661 0.4999 -18.8474 20.6987)" fill="#1A1A1A" width="2" height="2"/>
		
			<rect x="9.5" y="22.206" transform="matrix(0.4999 -0.8661 0.8661 0.4999 -14.8473 20.6986)" fill="#1A1A1A" width="2" height="2"/>
		
			<rect x="10.5" y="29.134" transform="matrix(0.4999 -0.8661 0.8661 0.4999 -20.3471 25.0291)" fill="#1A1A1A" width="2" height="2"/>
		
			<rect x="12.5" y="25.67" transform="matrix(0.4999 -0.8661 0.8661 0.4999 -16.347 25.0291)" fill="#1A1A1A" width="2" height="2"/>
		<path fill="#1A1A1A" d="M32,16c0-2.793-1.939-5.2-4.601-5.832c-0.895-2.037-2.711-3.491-4.851-3.977C21.347,2.516,17.922,0,14,0
			C9.349,0,5.511,3.546,5.047,8.075C2.19,8.533,0,11.016,0,14c0,3.309,2.691,6,6,6h5.026c0.914,1.207,2.348,2,3.974,2h2.276
			l-0.266,1.858c-0.041,0.287,0.044,0.578,0.234,0.797S17.71,25,18,25h0.847l-0.837,5.858c-0.065,0.458,0.192,0.901,0.622,1.071
			C18.752,31.978,18.877,32,19,32c0.319,0,0.628-0.153,0.82-0.427l6.72-9.601C29.596,21.699,32,19.126,32,16z M6,18
			c-2.206,0-4-1.794-4-4s1.794-4,4-4c0.552,0,1-0.447,1-1c0-3.859,3.14-7,7-7c2.762,0,5.2,1.608,6.331,4.032
			c-3.246,0.309-5.853,2.844-6.272,6.057C11.75,12.53,10,14.564,10,17c0,0.342,0.035,0.677,0.101,1H6z M23.149,21.525
			C23.332,21.82,23.653,22,24,22h0.08l-3.498,4.996l0.408-2.854c0.041-0.287-0.044-0.578-0.234-0.797S20.29,23,20,23h-0.847l0.714-5
			h4.515l-1.276,2.553C22.951,20.862,22.967,21.23,23.149,21.525z M26,20h-0.382l1.276-2.553c0.155-0.31,0.138-0.678-0.044-0.973
			S26.347,16,26,16h-7c-0.498,0-0.919,0.366-0.99,0.858L17.561,20H15c-1.654,0-3-1.346-3-3s1.346-3,3-3c0.552,0,1-0.447,1-1
			c0-2.757,2.243-5,5-5c2.139,0,4.037,1.355,4.723,3.372c0.123,0.36,0.439,0.62,0.816,0.669C28.512,12.3,30,14.002,30,16
			C30,18.206,28.206,20,26,20z"/>
	</g>
</g>
</svg>
